# Blender v2.79 (sub 0) OBJ File: 'maze.blend'
# www.blender.org
o Cube.001
v 0.276336 0.604582 -0.277812
v -0.075405 0.604582 -0.082669
v -0.270548 0.604582 -0.277812
v 0.276336 1.000000 0.269072
v -0.270548 1.000000 -0.277812
v -0.270548 1.000000 0.269072
v -0.270548 0.604582 0.269072
v 0.276336 1.000000 -0.277812
v 0.276336 0.604582 0.269072
v 0.081193 0.604582 0.073929
v 0.081193 0.566263 -0.082669
v 0.081193 0.604582 -0.082669
v -0.075405 0.604582 0.073929
v 0.081193 0.566263 0.073929
v 0.229647 0.566263 -0.150487
v -0.075405 0.566263 0.073929
v -0.075405 0.566263 -0.082669
v 0.229647 0.566263 0.141748
v 0.133468 0.293776 -0.098609
v -0.223860 0.566263 0.141748
v -0.223860 0.566263 -0.150487
v -0.127680 0.293776 -0.098609
v 0.133468 0.293776 0.089869
v -0.127680 0.293776 0.089869
v 0.583707 0.340051 0.057626
v 0.516228 0.289687 -0.086486
v 0.294203 0.516449 0.024669
v -0.512647 0.289687 -0.086486
v -0.290623 0.516449 0.024669
v -0.460995 0.223149 0.057608
v 0.464576 0.223149 0.057608
v -0.580127 0.340051 0.057626
v -0.019366 0.002369 -0.058493
v -0.101333 0.249088 -0.011170
v -0.101333 0.002369 0.083477
v 0.094858 0.002369 0.083477
v 0.094858 0.249088 -0.011170
v 0.012892 0.002369 -0.058493
v -0.183299 0.002369 -0.058493
v 0.176825 0.002369 -0.058493
vt 0.000000 0.000000
vt 1.000000 0.000000
vt 1.000000 1.000000
vt 0.000000 0.000000
vt 1.000000 0.000000
vt 1.000000 1.000000
vt 0.000000 0.000000
vt 1.000000 0.000000
vt 1.000000 1.000000
vt 0.000000 0.000000
vt 1.000000 0.000000
vt 0.000000 0.000000
vt 1.000000 0.000000
vt 1.000000 1.000000
vt 0.000000 0.000000
vt 1.000000 0.000000
vt 0.000000 0.000000
vt 1.000000 0.000000
vt 1.000000 1.000000
vt 1.000000 1.000000
vt 0.000000 0.000000
vt 1.000000 0.000000
vt 1.000000 0.000000
vt 1.000000 1.000000
vt 0.000000 0.000000
vt 1.000000 0.000000
vt 1.000000 1.000000
vt 0.000000 0.000000
vt 1.000000 0.000000
vt 0.000000 0.000000
vt 1.000000 0.000000
vt 0.000000 0.000000
vt 1.000000 0.000000
vt 1.000000 1.000000
vt 0.000000 0.000000
vt 1.000000 0.000000
vt 1.000000 1.000000
vt 0.000000 0.000000
vt 1.000000 0.000000
vt 1.000000 1.000000
vt 0.000000 0.000000
vt 1.000000 0.000000
vt 1.000000 1.000000
vt 0.000000 0.000000
vt 1.000000 0.000000
vt 1.000000 1.000000
vt 0.000000 0.000000
vt 1.000000 0.000000
vt 1.000000 1.000000
vt 0.000000 0.000000
vt 1.000000 0.000000
vt 1.000000 1.000000
vt 0.000000 0.000000
vt 1.000000 1.000000
vt 0.000000 0.000000
vt 1.000000 0.000000
vt 1.000000 1.000000
vt 0.000000 0.000000
vt 1.000000 0.000000
vt 1.000000 1.000000
vt 0.000000 0.000000
vt 1.000000 0.000000
vt 1.000000 1.000000
vt 0.000000 0.000000
vt 1.000000 0.000000
vt 0.000000 0.000000
vt 1.000000 1.000000
vt 0.000000 0.000000
vt 1.000000 0.000000
vt 1.000000 1.000000
vt 0.000000 0.000000
vt 1.000000 1.000000
vt 1.000000 0.000000
vt 0.000000 0.000000
vt 1.000000 0.000000
vt 1.000000 1.000000
vt 0.000000 0.000000
vt 1.000000 0.000000
vt 1.000000 1.000000
vt 0.000000 0.000000
vt 1.000000 1.000000
vt 0.000000 0.000000
vt 1.000000 1.000000
vt 0.000000 0.000000
vt 1.000000 1.000000
vt 1.000000 0.000000
vt 0.000000 0.000000
vt 1.000000 1.000000
vt 1.000000 0.000000
vt 1.000000 0.000000
vt 1.000000 1.000000
vt 1.000000 1.000000
vt 1.000000 1.000000
vt 1.000000 0.000000
vt 1.000000 0.000000
vt 1.000000 1.000000
vt 1.000000 1.000000
vt 1.000000 1.000000
vn 0.0000 -1.0000 0.0000
vn 0.0000 1.0000 0.0000
vn -1.0000 0.0000 0.0000
vn 0.0000 0.0000 -1.0000
vn 1.0000 0.0000 0.0000
vn 0.0000 0.0000 1.0000
vn 0.9430 -0.3328 0.0000
vn -0.9430 -0.3328 0.0000
vn 0.0000 -0.1870 0.9824
vn 0.0000 -0.1870 -0.9824
vn 0.4949 0.7217 -0.4839
vn 0.7320 -0.4796 -0.4839
vn -0.0699 0.0711 0.9950
vn 0.0699 0.0711 0.9950
vn -0.7320 -0.4796 -0.4839
vn 0.6983 -0.7116 -0.0783
vn -0.4949 0.7217 -0.4839
vn -0.6983 -0.7116 -0.0783
vn 0.8505 0.1884 0.4911
vn -0.8505 0.1884 0.4910
vn 0.0000 0.1884 -0.9821
s 1
f 1/1/1 2/2/1 3/3/1
f 4/4/2 5/5/2 6/6/2
f 6/7/3 3/8/3 7/9/3
f 5/10/4 1/11/4 3/3/4
f 8/12/5 9/13/5 1/14/5
f 7/15/6 4/16/6 6/6/6
f 10/17/5 11/18/5 12/19/5
f 7/15/1 2/2/1 13/20/1
f 9/21/1 12/22/1 1/14/1
f 9/21/1 13/23/1 10/24/1
f 14/25/2 15/26/2 11/27/2
f 2/28/3 16/29/3 13/20/3
f 13/30/6 14/31/6 10/24/6
f 12/32/4 17/33/4 2/34/4
f 18/35/7 19/36/7 15/37/7
f 17/38/2 20/39/2 16/40/2
f 16/41/2 18/42/2 14/43/2
f 11/44/2 21/45/2 17/46/2
f 22/47/1 23/48/1 24/49/1
f 21/50/8 24/51/8 20/52/8
f 20/53/9 23/48/9 18/54/9
f 15/55/10 22/56/10 21/57/10
f 25/58/11 26/59/11 27/60/11
f 28/61/12 29/62/12 30/63/12
f 31/64/13 25/65/13 27/60/13
f 30/66/14 29/62/14 32/67/14
f 26/68/15 31/69/15 27/60/15
f 26/68/16 25/65/16 31/70/16
f 32/71/17 29/62/17 28/72/17
f 28/61/18 30/73/18 32/67/18
f 33/74/19 34/75/19 35/76/19
f 36/77/20 37/78/20 38/79/20
f 39/80/21 34/75/21 33/81/21
f 38/82/21 37/78/21 40/83/21
f 35/84/20 34/75/20 39/85/20
f 35/84/1 39/86/1 33/81/1
f 40/87/19 37/78/19 36/88/19
f 36/77/1 38/89/1 40/83/1
f 1/1/1 12/22/1 2/34/1
f 4/4/2 8/90/2 5/91/2
f 6/7/3 5/5/3 3/3/3
f 5/10/4 8/90/4 1/14/4
f 8/12/5 4/16/5 9/92/5
f 7/15/6 9/13/6 4/93/6
f 10/17/5 14/31/5 11/27/5
f 7/15/1 3/8/1 2/34/1
f 9/21/1 10/94/1 12/19/1
f 9/21/1 7/95/1 13/20/1
f 14/25/2 18/42/2 15/37/2
f 2/28/3 17/33/3 16/40/3
f 13/30/6 16/29/6 14/43/6
f 12/32/4 11/18/4 17/46/4
f 18/35/7 23/48/7 19/96/7
f 17/38/2 21/45/2 20/52/2
f 16/41/2 20/39/2 18/54/2
f 11/44/2 15/26/2 21/57/2
f 22/47/1 19/36/1 23/97/1
f 21/50/8 22/56/8 24/49/8
f 20/53/9 24/51/9 23/97/9
f 15/55/10 19/36/10 22/98/10
