# Blender v2.79 (sub 0) OBJ File: 'untitled.blend'
# www.blender.org
o Cube
v -0.270548 0.604582 0.269072
v -0.270548 0.604582 -0.277812
v 0.276336 0.604582 -0.277812
v 0.276336 0.604582 0.269072
v -0.270548 1.000000 0.269072
v -0.270548 1.000000 -0.277812
v 0.276336 1.000000 -0.277812
v 0.276336 1.000000 0.269072
v -0.075405 0.604582 0.073929
v -0.075405 0.604582 -0.082669
v 0.081193 0.604582 -0.082669
v 0.081193 0.604582 0.073929
v -0.075405 0.566263 0.073929
v -0.075405 0.566263 -0.082669
v 0.081193 0.566263 -0.082669
v 0.081193 0.566263 0.073929
v -0.223860 0.566263 0.141748
v -0.223860 0.566263 -0.150487
v 0.229647 0.566263 -0.150487
v 0.229647 0.566263 0.141748
v -0.127680 0.293776 0.089869
v -0.127680 0.293776 -0.098609
v 0.133468 0.293776 -0.098609
v 0.133468 0.293776 0.089869
v 0.583707 0.340051 0.057626
v 0.294203 0.516449 0.024669
v -0.512647 0.289687 -0.086486
v 0.464576 0.223149 0.057608
v -0.460995 0.223149 0.057608
v -0.290623 0.516449 0.024669
v -0.580127 0.340051 0.057626
v 0.516228 0.289687 -0.086486
v -0.019366 0.002369 -0.058493
v -0.101333 0.249088 -0.011170
v 0.094858 0.002369 0.083477
v -0.183299 0.002369 -0.058493
v 0.012892 0.002369 -0.058493
v 0.094858 0.249088 -0.011170
v 0.176825 0.002369 -0.058493
v -0.101333 0.002369 0.083477
vt 0.361584 0.354718
vt 0.232561 0.126573
vt 0.361584 0.000000
vt 0.361584 0.000000
vt 0.720921 0.354718
vt 0.361584 0.354718
vt 0.720921 0.354717
vt 0.891612 0.000000
vt 0.891612 0.354717
vt 0.172939 0.709435
vt 0.345608 0.354718
vt 0.345608 0.709435
vt 0.720921 0.709435
vt 0.891612 0.354718
vt 0.891612 0.709435
vt 0.000000 0.709435
vt 0.172939 0.354718
vt 0.172939 0.709435
vt 0.375806 0.456290
vt 0.392347 0.557862
vt 0.375806 0.557862
vt 0.000000 0.000000
vt 0.129023 0.126573
vt 0.000000 0.354717
vt 0.232561 0.228145
vt 0.129023 0.228145
vt 0.573465 0.451007
vt 0.720921 0.354718
vt 0.676360 0.451007
vt 0.359265 0.354718
vt 0.375806 0.456290
vt 0.359265 0.456290
vt 0.392539 0.354718
vt 0.409297 0.456289
vt 0.392539 0.456289
vt 0.392539 0.456290
vt 0.375806 0.354718
vt 0.392539 0.354718
vt 0.528904 0.838417
vt 0.401028 0.682518
vt 0.528904 0.648869
vt 0.676360 0.552579
vt 0.528904 0.648869
vt 0.573465 0.552579
vt 0.528904 0.354718
vt 0.720921 0.648869
vt 0.345608 0.709435
vt 0.220991 0.878820
vt 0.220991 0.709435
vt 0.127875 0.898983
vt 0.000000 0.743084
vt 0.127875 0.709435
vt 0.409297 0.354718
vt 0.528904 0.586486
vt 0.409298 0.648869
vt 0.645925 0.880637
vt 0.528904 0.943021
vt 0.720921 0.718817
vt 0.827390 0.709435
vt 0.827390 0.875390
vt 0.891612 0.335275
vt 0.934235 0.202355
vt 0.989671 0.335275
vt 0.891612 0.053011
vt 0.968412 0.000000
vt 0.968412 0.202355
vt 0.144192 0.858779
vt 0.220991 0.709435
vt 0.220991 0.911790
vt 0.891612 0.371703
vt 0.982369 0.335275
vt 0.982369 0.478891
vt 0.717253 0.648869
vt 0.717253 0.752082
vt 0.645925 0.719304
vt 0.921268 0.709435
vt 0.921268 0.897649
vt 0.827390 0.759592
vt 0.872020 0.897649
vt 0.906156 0.991115
vt 0.827390 0.991115
vt 0.921268 0.897757
vt 0.997773 0.830615
vt 0.997773 0.951795
vt 0.997773 0.709435
vt 0.997773 0.830615
vt 0.921268 0.763473
vt 0.498175 0.838417
vt 0.498175 0.958300
vt 0.401028 0.885572
vt 0.891612 0.586340
vt 0.945806 0.478891
vt 1.000000 0.586340
vt 0.297496 0.878820
vt 0.297496 1.000000
vt 0.220991 0.932858
vt 0.891612 0.639505
vt 0.985479 0.586340
vt 0.985479 0.692670
vt 0.389559 0.878820
vt 0.389559 0.979522
vt 0.297496 0.898726
vt 0.814787 0.875390
vt 0.814787 0.981720
vt 0.720921 0.928555
vt 0.720921 0.000000
vt 0.720921 0.000000
vt 0.172939 0.354718
vt 0.720921 0.354718
vt 0.392347 0.456290
vt 0.409297 0.354718
vt 0.375806 0.456290
vt 0.401028 0.804768
vt 0.345608 0.878820
vt 0.000000 0.865334
vt 0.528904 0.417101
vt 0.645925 0.711253
vn 0.0000 -1.0000 -0.0000
vn 0.0000 1.0000 0.0000
vn -1.0000 -0.0000 -0.0000
vn 0.0000 -0.0000 -1.0000
vn 1.0000 -0.0000 0.0000
vn -0.0000 0.0000 1.0000
vn 0.9430 -0.3328 0.0000
vn -0.9430 -0.3328 0.0000
vn -0.0000 -0.1870 0.9824
vn 0.0000 -0.1870 -0.9824
vn 0.4949 0.7217 -0.4839
vn 0.7320 -0.4796 -0.4839
vn -0.0699 0.0711 0.9950
vn 0.0699 0.0711 0.9950
vn -0.7320 -0.4796 -0.4839
vn 0.6983 -0.7116 -0.0783
vn -0.4949 0.7217 -0.4839
vn -0.6983 -0.7116 -0.0783
vn 0.8505 0.1884 0.4910
vn -0.8505 0.1884 0.4910
vn 0.0000 0.1884 -0.9821
s off
f 3/1/1 10/2/1 2/3/1
f 8/4/2 6/5/2 5/6/2
f 5/7/3 2/8/3 1/9/3
f 6/10/4 3/11/4 2/12/4
f 7/13/5 4/14/5 3/15/5
f 1/16/6 8/17/6 5/18/6
f 12/19/5 15/20/5 11/21/5
f 1/22/1 10/2/1 9/23/1
f 4/24/1 11/25/1 3/1/1
f 4/24/1 9/23/1 12/26/1
f 16/27/2 19/28/2 15/29/2
f 10/30/3 13/31/3 9/32/3
f 9/33/6 16/34/6 12/35/6
f 11/36/4 14/37/4 10/38/4
f 20/39/7 23/40/7 19/41/7
f 14/42/2 17/43/2 13/44/2
f 13/44/2 20/45/2 16/27/2
f 15/29/2 18/46/2 14/42/2
f 22/47/1 24/48/1 21/49/1
f 18/50/8 21/51/8 17/52/8
f 17/53/9 24/54/9 20/55/9
f 19/41/10 22/56/10 18/57/10
f 25/58/11 32/59/11 26/60/11
f 27/61/12 30/62/12 29/63/12
f 28/64/13 25/65/13 26/66/13
f 29/67/14 30/68/14 31/69/14
f 32/70/15 28/71/15 26/72/15
f 32/73/16 25/74/16 28/75/16
f 31/76/17 30/77/17 27/78/17
f 27/79/18 29/80/18 31/81/18
f 33/82/19 34/83/19 40/84/19
f 35/85/20 38/86/20 37/87/20
f 36/88/21 34/89/21 33/90/21
f 37/91/21 38/92/21 39/93/21
f 40/94/20 34/95/20 36/96/20
f 40/97/1 36/98/1 33/99/1
f 39/100/19 38/101/19 35/102/19
f 35/103/1 37/104/1 39/105/1
f 3/1/1 11/25/1 10/2/1
f 8/4/2 7/106/2 6/5/2
f 5/7/3 6/107/3 2/8/3
f 6/10/4 7/108/4 3/11/4
f 7/13/5 8/109/5 4/14/5
f 1/16/6 4/24/6 8/17/6
f 12/19/5 16/110/5 15/20/5
f 1/22/1 2/3/1 10/2/1
f 4/24/1 12/26/1 11/25/1
f 4/24/1 1/22/1 9/23/1
f 16/27/2 20/45/2 19/28/2
f 10/30/3 14/37/3 13/31/3
f 9/33/6 13/111/6 16/34/6
f 11/36/4 15/112/4 14/37/4
f 20/39/7 24/113/7 23/40/7
f 14/42/2 18/46/2 17/43/2
f 13/44/2 17/43/2 20/45/2
f 15/29/2 19/28/2 18/46/2
f 22/47/1 23/114/1 24/48/1
f 18/50/8 22/115/8 21/51/8
f 17/53/9 21/116/9 24/54/9
f 19/41/10 23/117/10 22/56/10
